<svg width="108" height="37" viewBox="0 0 108 37" fill="none" xmlns="http://www.w3.org/2000/svg">
<path d="M18.7849 0C8.15631 0 0 8.03307 0 18.5011C0 19.4542 0.071547 20.3912 0.209707 21.3072L1.14308 21.1706C1.01171 20.2997 0.943615 19.4083 0.943615 18.5011C0.943615 8.54634 8.67745 0.929358 18.7849 0.929358C28.8923 0.929358 36.6245 8.54629 36.6245 18.5011C36.6245 19.4083 36.5564 20.2997 36.425 21.1706L37.3584 21.3072C37.4966 20.3912 37.5681 19.4542 37.5681 18.5011C37.5681 8.03313 29.4136 0 18.7849 0Z" fill="#696FE6"/>
<path d="M14.5588 15.7263C15.8795 15.7263 16.9066 14.7146 16.9066 13.4139C16.9066 12.1132 15.8795 11.1016 14.5588 11.1016C13.2382 11.1016 12.211 12.1132 12.211 13.4139C12.211 14.7146 13.3115 15.7263 14.5588 15.7263Z" fill="#696FE6"/>
<path d="M13.1269 24.039L23.397 13.8764L35.6893 25.9537C32.8166 32.4541 26.2585 37 18.634 37C11.9599 37 6.10289 33.5167 2.81964 28.2883L10.3733 21.3142L13.1269 24.039Z" fill="#696FE6"/>
<path fill-rule="evenodd" clip-rule="evenodd" d="M88.2808 35.1501H88.7535C88.9963 35.1501 89.2235 35.0581 89.3938 34.9018C89.4948 34.8092 89.5757 34.6941 89.6281 34.5621L89.8483 34.0078H92.2904L92.5106 34.5621C92.5772 34.7299 92.6899 34.8705 92.8312 34.9721C92.9886 35.0853 93.1814 35.1501 93.3851 35.1501H93.9156L91.6551 29.6004H90.5413L88.2808 35.1501ZM91.9108 33.0518L91.0693 30.9129L90.2278 33.0518H91.9108Z" fill="#696FE6"/>
<path d="M84.0547 31.1398L85.007 29.6004H86.2137L85.2615 31.1317C85.1246 31.3531 84.996 31.5475 84.8756 31.715C84.7607 31.877 84.6485 32.0201 84.5391 32.1444L86.4025 35.1501H85.6411C85.504 35.1501 85.3709 35.1206 85.2501 35.0661C85.0824 34.9905 84.9383 34.8666 84.8392 34.7065L83.6196 32.7358C83.5156 32.7628 83.4062 32.7817 83.2912 32.7925C83.1818 32.8033 83.0641 32.8087 82.9382 32.8087H82.8315V35.1501H81.7069V29.6004H82.8315V31.8203H82.9218C83.2119 31.8203 83.4308 31.7771 83.5786 31.6907C83.6407 31.6521 83.7047 31.5973 83.7707 31.5263C83.8617 31.4283 83.9564 31.2995 84.0547 31.1398Z" fill="#696FE6"/>
<path fill-rule="evenodd" clip-rule="evenodd" d="M78.7004 32.5939C78.8965 32.4781 79.0568 32.3363 79.1812 32.1687C79.3697 31.9148 79.4639 31.6151 79.4639 31.2694C79.4639 30.7671 79.2542 30.3647 78.8348 30.0622C78.4214 29.7544 77.8744 29.6004 77.1936 29.6004H75.1329V35.1501H76.3547V33.0275H77.2392L78.2126 34.6578C78.293 34.7924 78.4077 34.9046 78.5443 34.9877C78.7151 35.0916 78.9201 35.1501 79.1349 35.1501H79.8286L78.3698 32.752C78.4894 32.7062 78.5997 32.6535 78.7004 32.5939ZM77.9412 30.7914C77.8026 30.6814 77.6216 30.6162 77.3982 30.5958C77.3474 30.5912 77.2944 30.5888 77.2392 30.5888H76.3547V32.0471H77.2392C77.2944 32.0471 77.3474 32.0449 77.3982 32.0405C77.6216 32.0209 77.8026 31.9583 77.9412 31.8527C78.1175 31.7177 78.2057 31.5394 78.2057 31.318C78.2057 31.0965 78.1175 30.921 77.9412 30.7914Z" fill="#696FE6"/>
<path fill-rule="evenodd" clip-rule="evenodd" d="M70.4373 35.1501C71.2392 35.1501 71.9092 34.8877 72.4474 34.3629C72.9856 33.8329 73.2547 33.1716 73.2547 32.3792C73.2547 31.5868 72.9856 30.9255 72.4474 30.3955C71.9092 29.8654 71.2392 29.6004 70.4373 29.6004C69.6354 29.6004 68.9653 29.8654 68.4271 30.3955C67.889 30.9255 67.6199 31.5868 67.6199 32.3792C67.6199 33.1716 67.889 33.8329 68.4271 34.3629C68.9653 34.8877 69.6354 35.1501 70.4373 35.1501ZM70.4373 30.5923C69.9583 30.5923 69.5573 30.7628 69.2344 31.104C68.9169 31.4451 68.7581 31.8702 68.7581 32.3792C68.7581 32.8882 68.9169 33.3133 69.2344 33.6544C69.5573 33.9903 69.9583 34.1582 70.4373 34.1582C70.9163 34.1582 71.3145 33.9903 71.632 33.6544C71.955 33.3133 72.1164 32.8882 72.1164 32.3792C72.1164 31.8702 71.955 31.4451 71.632 31.104C71.3145 30.7628 70.9163 30.5923 70.4373 30.5923Z" fill="#696FE6"/>
<path d="M63.0082 30.5923C62.5149 30.5923 62.102 30.7628 61.7695 31.104C61.4425 31.4451 61.279 31.8702 61.279 32.3792C61.279 32.8882 61.4425 33.3133 61.7695 33.6544C62.102 33.9903 62.5149 34.1582 63.0082 34.1582C63.3795 34.1582 63.7009 34.0638 63.9725 33.8749C64.2441 33.6807 64.4325 33.4183 64.5378 33.0877H63.9068C63.3302 33.0877 62.8835 32.6442 62.8835 32.1273H65.7183C65.8249 32.935 65.5652 33.7827 64.9535 34.3865C64.4325 34.8956 63.7841 35.1501 63.0082 35.1501C62.1824 35.1501 61.4924 34.8877 60.9381 34.3629C60.3839 33.8329 60.1068 33.1716 60.1068 32.3792C60.1068 31.5868 60.3839 30.9255 60.9381 30.3955C61.4924 29.8654 62.1824 29.6004 63.0082 29.6004C63.7841 29.6004 64.4963 29.8891 65.0616 30.4348L64.3632 31.1591C63.9682 30.785 63.5233 30.5923 63.0082 30.5923Z" fill="#696FE6"/>
<path d="M108 0.00221164V4.81196H101.082V16.8363H100.268C98.0202 16.8363 96.1982 15.0419 96.1982 12.8282V4.81196H89.28V0.00221164H108Z" fill="#696FE6"/>
<path d="M101.084 19.241H96.2V24.0508H101.084V19.241Z" fill="#696FE6"/>
<path d="M75.4433 21.6458C75.4433 22.9739 74.3501 24.0506 73.0016 24.0506C71.6531 24.0506 70.5599 22.9739 70.5599 21.6458C70.5599 20.3176 71.6531 19.2409 73.0016 19.2409C74.3501 19.2409 75.4433 20.3176 75.4433 21.6458Z" fill="#696FE6"/>
<path d="M89.2813 24.0507H85.9892C84.7289 24.0507 83.5397 23.4756 82.769 22.4933L77.073 15.2333L77.0712 15.233C80.4899 14.5363 82.3617 11.2249 82.3617 8.41921C82.3617 6.41516 80.9373 4.81192 78.9025 4.81192C77.0712 4.81191 75.4433 6.26485 75.4433 8.21879V16.8362H74.6295C72.3819 16.8362 70.5599 15.0417 70.5599 12.8281V8.21878C70.5599 7.85806 70.6006 6.57547 70.682 6.21474C71.5514 2.86099 74.9056 0.00221164 78.4955 0.00221164H79.1059C83.7962 0.104865 87.245 3.78894 87.245 8.21878C87.245 10.1531 86.0242 14.0304 82.4141 15.2329H82.4171L89.2813 24.0507Z" fill="#696FE6"/>
<path d="M68.9347 24.0508H66.7038C65.0916 24.0508 63.6313 23.1133 62.9805 21.6606L57.9466 10.4233L52.9131 21.6605C52.2623 23.1133 50.802 24.0508 49.1897 24.0508H46.9589L57.54 0.00221164H58.3539L68.9347 24.0508Z" fill="#696FE6"/>
<path d="M55.5045 24.0507L57.9462 19.241L60.388 24.0507H55.5045Z" fill="#696FE6"/>
</svg>
